HIERARCHY
ROOT Hips
{
    OFFSET 0.000000 0.000000 0.000000
    CHANNELS 6 Xposition Yposition Zposition Zrotation Xrotation Yrotation
    JOINT Spine
    {
        OFFSET -0.000000 7.498351 0.000000
        CHANNELS 3 Zrotation Xrotation Yrotation
        JOINT Spine1
        {
            OFFSET -0.000000 18.429123 0.000000
            CHANNELS 3 Zrotation Xrotation Yrotation
            JOINT Neck
            {
                OFFSET -0.000000 20.257988 0.000000
                CHANNELS 3 Zrotation Xrotation Yrotation
                JOINT Head
                {
                    OFFSET -0.000000 14.173712 1.828866
                    CHANNELS 3 Zrotation Xrotation Yrotation
                    End Site
                    {
                        OFFSET -0.000000 18.288660 0.000000
                    }
                }
            }
            JOINT LeftShoulder
            {
                OFFSET 3.660798 16.016108 -0.192223
                CHANNELS 3 Zrotation Xrotation Yrotation
                JOINT LeftArm
                {
                    OFFSET 12.864595 0.000000 0.000000
                    CHANNELS 3 Zrotation Xrotation Yrotation
                    JOINT LeftForeArm
                    {
                        OFFSET 24.846529 0.000000 0.000000
                        CHANNELS 3 Zrotation Xrotation Yrotation
                        JOINT LeftHand
                        {
                            OFFSET 23.064747 0.000000 0.000000
                            CHANNELS 3 Zrotation Xrotation Yrotation
                            End Site
                            {
                                OFFSET 13.716496 0.000000 0.000000
                            }
                        }
                    }
                }
            }
            JOINT RightShoulder
            {
                OFFSET -3.651463 16.016108 -0.192223
                CHANNELS 3 Zrotation Xrotation Yrotation
                JOINT RightArm
                {
                    OFFSET -12.864595 0.000000 0.000000
                    CHANNELS 3 Zrotation Xrotation Yrotation
                    JOINT RightForeArm
                    {
                        OFFSET -24.846529 0.000000 0.000000
                        CHANNELS 3 Zrotation Xrotation Yrotation
                        JOINT RightHand
                        {
                            OFFSET -23.064747 0.000000 0.000000
                            CHANNELS 3 Zrotation Xrotation Yrotation
                            End Site
                            {
                                OFFSET -13.716496 0.000000 0.000000
                            }
                        }
                    }
                }
            }
        }
    }
    JOINT LeftUpLeg
    {
        OFFSET 9.144330 0.000000 0.000000
        CHANNELS 3 Zrotation Xrotation Yrotation
        JOINT LeftLeg
        {
            OFFSET -0.000000 -44.842400 0.000000
            CHANNELS 3 Zrotation Xrotation Yrotation
            JOINT LeftFoot
            {
                OFFSET -0.000000 -38.226624 0.000000
                CHANNELS 3 Zrotation Xrotation Yrotation
                JOINT LeftToeBase
                {
                    OFFSET -0.000000 -5.943814 13.716496
                    CHANNELS 3 Zrotation Xrotation Yrotation
                    End Site
                    {
                        OFFSET -0.000000 0.000000 3.657732
                    }
                }
            }
        }
    }
    JOINT RightUpLeg
    {
        OFFSET -9.144330 0.000000 0.000000
        CHANNELS 3 Zrotation Xrotation Yrotation
        JOINT RightLeg
        {
            OFFSET -0.000000 -44.842400 0.000000
            CHANNELS 3 Zrotation Xrotation Yrotation
            JOINT RightFoot
            {
                OFFSET -0.000000 -38.226624 0.000000
                CHANNELS 3 Zrotation Xrotation Yrotation
                JOINT RightToeBase
                {
                    OFFSET -0.000000 -5.943814 13.716496
                    CHANNELS 3 Zrotation Xrotation Yrotation
                    End Site
                    {
                        OFFSET -0.000000 0.000000 3.657732
                    }
                }
            }
        }
    }
}
MOTION
Frames:    14
Frame Time:    0.002778
42.723877    85.316864    -7.439673    3.499015    0.140637    85.139839    3.997813    5.926857    -0.306684    0.302824    -1.087028    -0.032260    3.817150    13.653543    1.481423    -6.138238    -4.167987    3.068824    10.980325    -0.397812    1.674941    -80.412415    8.331525    16.167654    -8.740368    7.240570    -25.780884    -7.046011    5.166009    1.547863    -12.046486    -0.665244    3.211658    68.363235    28.704527    -3.344997    8.964586    1.965312    34.161377    -6.392861    -1.258578    8.207479    8.756423    -11.179166    6.120049    -55.481419    74.468018    51.299744    2.425810    -17.309483    10.773984    0.000000    0.000000    0.000000    -1.518172    -0.720879    0.549622    11.167130    18.543482    0.101607    -5.265213    -23.293928    -11.529818    0.000000    0.000000    0.000000    
42.855671    85.341583    -7.402101    3.508237    0.166578    85.106674    3.975929    5.926015    -0.264948    0.290553    -1.061483    -0.019977    3.731725    13.845807    1.463155    -6.023255    -4.446732    3.009286    10.976084    -0.402107    1.693785    -80.681175    8.614683    16.181992    -8.425222    6.975942    -25.577606    -7.233547    4.989609    1.482097    -12.040487    -0.630205    3.265192    68.393333    29.048342    -3.209492    8.676216    1.635275    34.255428    -6.045623    -1.487778    8.304013    8.810120    -11.459459    6.189349    -55.925068    74.471230    51.049042    2.551597    -17.350136    11.366480    0.000000    0.000000    0.000000    -1.502942    -0.573169    0.527505    11.087798    18.436636    0.131588    -5.182446    -23.261208    -11.474582    0.000000    0.000000    0.000000    
42.993427    85.367012    -7.367530    3.486941    0.207627    85.076317    3.941585    5.923419    -0.200195    0.285726    -1.089198    0.009734    3.715944    13.791180    1.479177    -6.013379    -4.265928    3.028602    10.959931    -0.392531    1.672207    -80.544205    8.424183    16.280134    -8.638949    7.298591    -25.434481    -7.090394    5.284341    1.383240    -12.048877    -0.566141    3.223698    68.234795    28.959272    -3.051277    8.754404    1.762529    34.483921    -6.265850    -1.409072    8.105521    8.746730    -11.796038    6.322142    -55.249680    74.527061    51.108555    2.349549    -17.263693    10.611521    0.000000    0.000000    0.000000    -1.546626    -0.425747    0.750521    11.183470    18.236544    0.117119    -5.295247    -23.189140    -11.653383    0.000000    0.000000    0.000000    
43.129597    85.392914    -7.351203    3.503785    0.271306    85.065147    3.934812    5.927505    -0.162226    0.200689    -1.055299    0.017202    3.743359    13.775210    1.430891    -6.031182    -4.190276    2.990772    10.994673    -0.348149    1.737026    -80.590256    8.449799    16.271341    -8.632555    7.444052    -25.344002    -7.166802    5.422044    1.640309    -12.050202    -0.634422    3.292668    68.212570    28.745352    -3.070915    8.729354    1.798954    34.620785    -6.374179    -1.395440    8.311260    8.698499    -12.061084    6.206569    -55.384724    74.358772    51.043312    2.267623    -17.325560    10.683535    0.000000    0.000000    0.000000    -1.572500    -0.306495    0.396306    10.968996    18.266058    0.310549    -5.224950    -23.180902    -11.437402    0.000000    0.000000    0.000000    
43.262207    85.411949    -7.330498    3.506222    0.326761    85.066902    3.891357    5.947769    -0.120982    0.191320    -1.074999    0.028914    3.760188    13.866574    1.400706    -6.075295    -4.280594    2.966190    11.033482    -0.357600    1.737236    -80.697701    8.445741    16.347843    -8.573785    7.600550    -25.193142    -7.376212    5.609869    1.505341    -12.049509    -0.608595    3.284187    68.266388    28.985487    -3.003510    8.458904    1.581614    34.790184    -6.344251    -1.532989    8.186526    8.684659    -12.337667    6.235003    -55.270279    74.319542    50.852276    2.135109    -17.396984    10.566895    0.000000    0.000000    0.000000    -1.639486    -0.117559    0.892890    11.160837    17.943304    -0.061018    -5.328817    -23.104876    -11.585952    0.000000    0.000000    0.000000    
43.409592    85.430740    -7.308248    3.525598    0.382687    85.044487    3.871138    5.941024    -0.064576    0.133570    -1.050191    0.044930    3.717357    13.799136    1.438685    -5.959394    -4.079427    2.992018    11.022126    -0.277105    1.745111    -80.449516    8.123365    16.354048    -8.911354    7.970728    -25.098894    -7.238079    5.915682    1.508350    -12.026389    -0.620295    3.312987    68.122238    28.739609    -2.920577    8.567390    1.750629    34.890411    -6.341228    -1.413773    8.325361    8.613362    -12.614488    6.118191    -55.223064    74.158157    50.795380    2.379767    -17.283897    10.608123    0.000000    0.000000    0.000000    -1.677106    0.056286    0.877396    11.075211    17.819159    -0.010983    -5.198029    -23.088011    -11.472829    0.000000    0.000000    0.000000    
43.545647    85.448166    -7.280740    3.515834    0.458928    84.987709    3.792556    5.931852    -0.017192    0.116876    -1.024650    0.058343    3.684927    13.900758    1.426647    -5.908235    -4.249603    2.961069    11.030229    -0.349709    1.882335    -80.490044    8.251523    16.469069    -8.972874    7.911669    -25.060621    -7.173023    5.839920    1.616216    -12.020452    -0.643541    3.402128    68.091637    28.739468    -2.871037    8.591850    1.592473    35.083237    -6.491702    -1.593486    8.093130    8.602978    -12.875415    6.120973    -55.256371    74.032501    49.680820    2.415083    -17.398895    11.555183    0.000000    0.000000    0.000000    -1.729629    0.168875    0.923776    11.024348    17.781658    0.004462    -5.195699    -23.109783    -11.414478    0.000000    0.000000    0.000000    
43.681358    85.473289    -7.256773    3.542877    0.477336    85.005142    3.808243    5.990396    0.017929    0.083854    -1.069647    0.071311    3.639461    13.893582    1.386954    -5.885906    -4.084861    2.914588    11.019412    -0.265601    1.870583    -80.557953    8.359557    16.449884    -8.932672    7.846708    -24.965961    -7.222167    5.782720    1.741320    -12.023982    -0.574233    3.345639    68.086731    29.001497    -2.763595    8.142738    1.554040    35.334492    -5.942430    -1.460863    7.915750    8.607981    -13.130468    6.092526    -54.983150    73.870079    49.763210    2.368974    -17.401222    11.100495    0.000000    0.000000    0.000000    -1.726996    0.329924    0.718260    10.925252    17.722235    0.154697    -5.181087    -23.067104    -11.361876    0.000000    0.000000    0.000000    
43.836575    85.490768    -7.223114    3.611258    0.531034    84.991997    3.749612    6.006055    0.112436    0.090639    -0.993576    0.101832    3.581439    13.858782    1.355365    -5.794189    -4.003606    2.861517    10.965117    -0.252495    1.804492    -80.372833    8.091212    16.508255    -9.179189    8.097700    -24.940624    -7.062888    5.980088    1.820071    -12.119383    -0.605516    3.306654    68.196892    29.060263    -2.693629    7.997828    1.351260    35.361225    -6.208891    -1.645136    8.048289    8.555488    -13.319257    5.960205    -54.709984    73.708847    49.250340    2.358753    -17.408739    11.190745    0.000000    0.000000    0.000000    -1.756471    0.523532    0.333551    10.753189    17.745773    0.531613    -5.181058    -23.079872    -11.309349    0.000000    0.000000    0.000000    
43.972580    85.512161    -7.202078    3.584794    0.578779    84.975807    3.756281    5.988498    0.131942    0.007064    -1.023298    0.107292    3.700652    14.035483    1.314188    -5.988173    -4.142619    2.866219    10.968772    -0.230670    1.840997    -80.255585    7.927975    16.610825    -9.364149    8.303079    -24.862114    -7.135571    6.148785    1.858941    -12.044178    -0.564759    3.373586    68.006012    28.796455    -2.583019    8.245876    1.408260    35.519585    -6.452342    -1.694222    7.994356    8.526265    -13.598380    6.014651    -54.259865    73.557526    48.906330    2.412728    -17.381762    11.004329    0.000000    0.000000    0.000000    -1.787368    0.659612    0.661822    10.825069    17.492760    0.255628    -5.235582    -23.003855    -11.360094    0.000000    0.000000    0.000000    
44.117874    85.529602    -7.175001    3.599720    0.614354    84.975807    3.755101    5.968689    0.196708    -0.048974    -0.967682    0.128432    3.597720    13.985425    1.302723    -5.808466    -4.000614    2.816776    10.979414    -0.243176    1.853567    -80.215363    7.920364    16.641380    -9.456821    8.396456    -24.752687    -7.316697    6.226151    1.899271    -12.071231    -0.593224    3.363516    68.114113    28.959949    -2.605857    7.921082    1.204793    35.732197    -6.047258    -1.780338    7.976542    8.444672    -13.869629    5.992126    -53.544701    73.478630    48.318439    2.150844    -17.459051    10.782593    0.000000    0.000000    0.000000    -1.793550    0.815603    0.687616    10.780176    17.382849    0.168015    -5.238977    -22.974354    -11.291436    0.000000    0.000000    0.000000    
44.257572    85.540810    -7.147583    3.603928    0.631161    84.988548    3.743922    6.006527    0.213310    -0.051548    -1.018236    0.134196    3.552839    14.012925    1.324222    -5.766893    -3.950041    2.826904    11.003551    -0.205999    1.903254    -80.162384    7.815000    16.723707    -9.602061    8.574917    -24.732899    -7.267131    6.370245    1.994905    -12.085850    -0.626802    3.425469    67.972961    28.752489    -2.594356    8.111016    1.467223    35.862942    -6.319796    -1.611785    8.034700    8.450684    -14.120633    5.893418    -53.318535    73.203033    48.140377    2.213459    -17.463295    10.734751    0.000000    0.000000    0.000000    -1.786000    0.968007    0.679002    10.742290    17.271519    0.176829    -5.294511    -22.941643    -11.302476    0.000000    0.000000    0.000000    
44.388447    85.555672    -7.125808    3.587021    0.693103    84.972237    3.707688    5.941486    0.286135    -0.125582    -0.918051    0.156385    3.628942    14.028646    1.235884    -5.796782    -3.947686    2.758643    11.070716    -0.221347    1.910653    -80.119904    7.708142    16.748362    -9.796173    8.637665    -24.678177    -7.148394    6.392035    2.087214    -12.029584    -0.632668    3.368498    67.941956    28.893833    -2.445188    7.914170    1.207530    35.993004    -6.236786    -1.812753    8.053356    8.423503    -14.381660    5.784323    -53.040417    72.930542    47.289352    2.413910    -17.430338    11.206722    0.000000    0.000000    0.000000    -1.826173    1.029616    0.359495    10.607480    17.345097    0.514023    -5.312461    -22.958660    -11.295121    0.000000    0.000000    0.000000    
44.537140    85.572876    -7.096823    3.611723    0.737418    84.953308    3.684186    6.015371    0.339705    -0.177464    -1.025218    0.173871    3.604549    14.068818    1.276403    -5.719421    -3.827357    2.794096    11.077013    -0.202912    1.951713    -80.165878    7.757257    16.835888    -9.836124    8.499173    -24.645914    -7.093300    6.242473    2.175872    -12.027183    -0.585443    3.422126    67.973701    29.004745    -2.459721    7.668736    1.163856    36.136883    -5.966224    -1.771613    8.120973    8.323773    -14.610399    5.856758    -51.941471    72.921852    46.169807    2.266019    -17.500629    11.040173    0.000000    0.000000    0.000000    -1.843018    1.200558    0.361623    10.552976    17.236385    0.523607    -5.354461    -22.927267    -11.285649    0.000000    0.000000    0.000000    
